<?xml version="1.0" standalone="no"?>
<!DOCTYPE svg PUBLIC "-//W3C//DTD SVG 20010904//EN"
 "http://www.w3.org/TR/2001/REC-SVG-20010904/DTD/svg10.dtd">
<svg version="1.0" xmlns="http://www.w3.org/2000/svg"
 width="192.000000pt" height="192.000000pt" viewBox="0 0 192.000000 192.000000"
 preserveAspectRatio="xMidYMid meet">

<g transform="translate(0.000000,192.000000) scale(0.100000,-0.100000)"
fill="#000000" stroke="none">
<path d="M1132 1517 c-45 -45 -82 -87 -82 -93 0 -6 9 -19 20 -29 20 -18 22
-18 85 45 62 61 63 64 62 111 -1 27 -2 49 -2 49 0 0 -37 -37 -83 -83z"/>
<path d="M691 1534 c-2 -40 109 -168 125 -143 5 9 -13 31 -53 69 -33 30 -63
64 -66 75 -4 19 -5 19 -6 -1z"/>
<path d="M843 1245 c-70 -64 -103 -80 -103 -50 0 8 -13 21 -30 30 -16 9 -30
20 -30 26 0 10 -106 -87 -358 -326 -71 -67 -74 -73 -67 -104 5 -24 15 -36 38
-46 30 -12 30 -13 7 -20 -23 -7 -22 -8 14 -27 22 -11 48 -17 61 -14 12 3 146
123 296 266 151 143 279 260 284 260 6 0 57 -43 115 -95 58 -52 109 -95 113
-95 5 0 7 9 5 20 -3 17 -252 240 -268 240 -3 0 -38 -29 -77 -65z"/>
<path d="M1630 1290 c0 -15 -28 -49 -92 -110 l-92 -87 22 -23 22 -24 69 68
c66 66 69 70 75 129 3 33 4 63 1 65 -3 3 -5 -5 -5 -18z"/>
<path d="M1257 937 c-37 -21 -38 -21 -49 -3 -8 14 -12 15 -18 5 -7 -10 -14
-10 -33 -2 -14 7 -36 9 -48 6 -35 -9 -97 -54 -149 -108 -75 -77 -72 -77 -159
8 -92 92 -118 101 -161 59 -47 -48 -41 -74 40 -169 39 -45 70 -85 70 -90 0 -5
-40 -49 -90 -98 -81 -81 -90 -93 -90 -127 0 -59 14 -84 59 -102 23 -9 50 -16
62 -16 11 0 62 38 116 87 l96 87 71 -76 c39 -42 81 -81 93 -87 55 -27 125 2
137 57 10 42 -24 96 -113 179 -45 41 -81 80 -81 86 0 7 7 4 14 -6 13 -17 25
-7 156 120 78 76 149 140 157 141 8 2 44 -23 81 -55 118 -105 146 -114 201
-67 27 23 31 32 31 77 0 29 -5 59 -10 67 -5 8 -10 12 -10 8 0 -4 -11 -3 -24 2
-15 5 -51 5 -95 -2 -68 -10 -74 -9 -122 16 -61 31 -82 32 -132 3z"/>
</g>
</svg>
